Coordinates
version=1
nRows=7
nColumns=40
inDegrees=yes

Units are S.I. units (second, meters, Newtons, ...)
If the header above contains a line with 'inDegrees', this indicates whether rotational values are in degrees (yes) or radians (no).

endheader
time	pelvis_tilt	pelvis_list	pelvis_rotation	pelvis_tx	pelvis_ty	pelvis_tz	hip_flexion_r	hip_adduction_r	hip_rotation_r	knee_angle_r	knee_angle_r_beta	ankle_angle_r	subtalar_angle_r	mtp_angle_r	hip_flexion_l	hip_adduction_l	hip_rotation_l	knee_angle_l	knee_angle_l_beta	ankle_angle_l	subtalar_angle_l	mtp_angle_l	lumbar_extension	lumbar_bending	lumbar_rotation	arm_flex_r	arm_add_r	arm_rot_r	elbow_flex_r	pro_sup_r	wrist_flex_r	wrist_dev_r	arm_flex_l	arm_add_l	arm_rot_l	elbow_flex_l	pro_sup_l	wrist_flex_l	wrist_dev_l
      2.02500000	    -15.18912001	      0.42019961	     -0.73912497	     -0.33731244	      0.93848546	     -1.11949650	      5.95132207	     -3.59791578	      6.31334718	     72.32948074	      1.26238759	     -8.77929784	      0.00000000	      0.00000000	     46.91849826	      0.95188649	     -5.69615834	     56.95917085	      0.99412507	     12.58199487	      0.00000000	      0.00000000	    -14.11542197	     -7.78279244	      4.01874331	     89.89843713	     -0.51363514	     21.87970577	     36.45813633	     85.00954972	      0.00000000	      0.00000000	     89.94128731	     -5.83676968	     28.64624140	     39.00013272	     83.85801913	      0.00000000	      0.00000000
      2.03000000	    -15.35101173	      0.47397449	     -0.77626871	     -0.33769663	      0.93711514	     -1.11936984	      6.06636875	     -3.71436297	      6.36072717	     72.35655102	      1.26286005	     -9.01465984	      0.00000000	      0.00000000	     47.27205839	      1.02249782	     -5.62476314	     57.23431428	      0.99892723	     12.65805446	      0.00000000	      0.00000000	    -14.07539072	     -7.90542216	      4.29865317	     89.90059558	     -0.76442546	     21.57692735	     36.69607480	     85.06777685	      0.00000000	      0.00000000	     89.94100604	     -5.65357450	     28.68874395	     39.17508324	     83.53390651	      0.00000000	      0.00000000
      2.03500000	    -15.48624856	      0.49237062	     -0.83397144	     -0.33788086	      0.93561077	     -1.11922513	      6.03305771	     -3.68125090	      6.62545297	     72.34351076	      1.26263246	     -8.74522334	      0.00000000	      0.00000000	     47.58318113	      1.04724240	     -5.54651289	     57.54641113	      1.00437435	     12.87929319	      0.00000000	      0.00000000	    -14.00729102	     -7.98141525	      4.52125097	     89.90197229	     -0.88956615	     21.27483999	     36.85135453	     85.01334648	      0.00000000	      0.00000000	     89.94069167	     -5.50280408	     28.66045010	     39.28775902	     83.48172068	      0.00000000	      0.00000000
      2.04000000	    -15.58349346	      0.37122699	     -0.87422486	     -0.33800145	      0.93434880	     -1.11910194	      5.97506051	     -3.51415194	      6.73775320	     72.23472590	      1.26073380	     -8.99968508	      0.00000000	      0.00000000	     47.86408762	      0.95076982	     -5.39248459	     57.89141456	      1.01039579	     13.05223291	      0.00000000	      0.00000000	    -13.99837288	     -7.90377592	      4.68128953	     89.90449508	     -0.99053766	     21.09346331	     37.02815248	     85.13951896	      0.00000000	      0.00000000	     89.94075867	     -5.33580573	     28.56047917	     39.43443758	     82.89906052	      0.00000000	      0.00000000
      2.04500000	    -15.78121688	      0.48294657	     -0.94498481	     -0.33823803	      0.93286885	     -1.11899174	      6.08455320	     -3.64705351	      6.91336653	     72.25743800	      1.26113020	     -8.90226581	      0.00000000	      0.00000000	     48.22185853	      1.05104898	     -5.37124975	     58.15437679	      1.01498535	     13.16479940	      0.00000000	      0.00000000	    -13.89583268	     -8.04741341	      4.75126637	     89.90585807	     -0.91335203	     20.65755700	     37.21269647	     85.14531617	      0.00000000	      0.00000000	     89.94140155	     -5.22050296	     28.45224017	     39.62192962	     82.64743620	      0.00000000	      0.00000000
      2.05000000	    -15.92326455	      0.34441000	     -1.00152479	     -0.33828487	      0.93159377	     -1.11881049	      6.04816782	     -3.42792710	      7.14032721	     72.10840458	      1.25852908	     -9.02202143	      0.00000000	      0.00000000	     48.54451691	      0.93044012	     -5.21162656	     58.49857881	      1.02099281	     13.41256449	      0.00000000	      0.00000000	    -13.85193627	     -7.92077423	      4.81804563	     89.90777302	     -0.84762378	     20.45798060	     37.33459789	     84.89035772	      0.00000000	      0.00000000	     89.94232379	     -5.04605659	     28.00861968	     39.78543722	     83.29223831	      0.00000000	      0.00000000
      2.05500000	    -16.17180601	      0.40702745	     -1.14492598	     -0.33853805	      0.93003967	     -1.11859275	      6.23677978	     -3.47910852	      7.39009985	     72.18265213	      1.25982494	     -9.01877379	      0.00000000	      0.00000000	     48.98070437	      0.90604443	     -5.24137603	     58.79814040	      1.02622114	     13.42659349	      0.00000000	      0.00000000	    -13.66675996	     -8.01718588	      4.84949984	     89.90925289	     -0.67239777	     20.24417858	     37.40726994	     84.90305503	      0.00000000	      0.00000000	     89.94351224	     -4.95106355	     27.81859245	     39.94974457	     83.24051164	      0.00000000	      0.00000000
